<?xml version="1.0" standalone="no"?>
<!DOCTYPE svg PUBLIC "-//W3C//DTD SVG 20010904//EN"
 "http://www.w3.org/TR/2001/REC-SVG-20010904/DTD/svg10.dtd">
<svg version="1.0" xmlns="http://www.w3.org/2000/svg"
 width="284.000000pt" height="284.000000pt" viewBox="0 0 284.000000 284.000000"
 preserveAspectRatio="xMidYMid meet">
<metadata>
Created by potrace 1.11, written by Peter Selinger 2001-2013
</metadata>
<g transform="translate(0.000000,284.000000) scale(0.100000,-0.100000)"
fill="#000000" stroke="none">
<path d="M0 1420 l0 -1420 1420 0 1420 0 0 1420 0 1420 -1420 0 -1420 0 0
-1420z m1130 770 c0 -5 17 -10 38 -10 79 0 182 -41 182 -73 0 -16 -6 -18 -33
-15 -36 4 -57 -10 -57 -37 0 -12 6 -15 20 -10 14 5 20 2 20 -9 0 -9 -9 -16
-20 -16 -11 0 -20 -4 -20 -9 0 -5 -9 -13 -20 -16 -11 -3 -20 -10 -20 -15 0 -5
9 -12 20 -15 13 -4 20 -15 20 -30 0 -15 -7 -26 -20 -30 -11 -3 -20 -13 -20
-21 0 -8 -8 -14 -18 -14 -10 0 -22 -3 -25 -7 -9 -8 24 -32 46 -33 27 0 21 -39
-10 -66 -16 -13 -31 -24 -35 -24 -5 0 -8 -9 -8 -21 0 -11 -4 -17 -10 -14 -5 3
-10 -1 -10 -9 0 -12 10 -16 35 -16 40 0 44 -11 15 -40 -12 -12 -18 -25 -15
-30 3 -5 -4 -11 -15 -15 -39 -12 -12 -39 29 -28 18 5 21 1 21 -26 0 -35 -26
-71 -52 -71 -12 0 -18 -8 -18 -22 0 -12 3 -19 6 -15 11 10 64 -50 64 -72 0
-12 5 -21 10 -21 6 0 10 -13 10 -30 0 -16 5 -30 10 -30 6 0 10 -21 10 -46 0
-35 -5 -51 -22 -65 -38 -34 -45 -25 -50 65 -4 69 -8 89 -29 114 -13 17 -29 31
-34 31 -6 1 -16 10 -22 20 -8 12 -50 31 -115 52 -98 31 -147 60 -148 86 0 12
-38 28 -47 20 -3 -3 -2 -20 2 -37 7 -31 103 -136 157 -172 31 -21 96 -145 92
-176 -2 -12 1 -22 7 -22 5 0 8 -4 5 -9 -3 -5 1 -22 9 -37 8 -16 15 -34 15 -40
0 -13 55 -124 81 -164 33 -51 32 -75 -5 -104 -19 -14 -41 -26 -50 -26 -8 0
-18 -4 -21 -10 -3 -5 -35 -19 -72 -30 -53 -16 -73 -18 -104 -10 -47 13 -126
91 -160 157 -13 27 -27 50 -30 53 -18 16 -39 137 -39 228 0 82 -3 104 -15 108
-17 7 -21 34 -5 34 6 0 10 14 10 30 0 17 5 30 10 30 6 0 10 13 10 29 0 17 6
31 16 35 8 3 12 11 8 17 -4 7 0 17 8 23 10 8 17 32 19 67 4 50 2 55 -16 55
-19 -1 -20 5 -19 120 0 121 20 264 36 264 4 0 8 6 8 14 0 25 39 106 50 106 22
0 40 25 40 55 0 16 28 23 175 40 55 7 103 13 108 14 4 0 7 -3 7 -9z m475 -185
c58 -9 75 -15 75 -26 0 -6 -4 -7 -10 -4 -5 3 -10 -1 -10 -9 0 -9 5 -16 10 -16
6 0 10 -13 10 -30 0 -16 -4 -30 -10 -30 -5 0 -10 -5 -10 -12 0 -6 3 -9 6 -5
16 16 34 -25 34 -77 0 -38 4 -56 13 -57 10 0 10 -2 0 -6 -7 -2 -13 -14 -13
-24 0 -11 5 -17 10 -14 6 3 10 -1 10 -9 0 -9 5 -16 10 -16 15 0 12 -48 -2 -53
-7 -2 -9 -8 -5 -13 5 -5 15 -1 23 10 13 18 14 17 14 -17 0 -27 4 -37 16 -37
13 0 15 -9 11 -45 -3 -33 0 -45 10 -45 7 0 13 -11 13 -25 0 -14 5 -25 10 -25
6 0 10 -4 10 -10 0 -12 69 -104 81 -108 5 -2 9 -10 9 -18 0 -8 5 -14 10 -14 6
0 10 -7 10 -15 0 -8 5 -15 10 -15 6 0 10 -9 10 -20 0 -11 7 -20 15 -20 10 0
15 -10 15 -30 0 -16 5 -30 10 -30 6 0 10 -9 10 -20 0 -11 -4 -20 -10 -20 -5 0
-10 -5 -10 -11 0 -6 9 -8 20 -4 18 6 20 2 20 -44 0 -41 -4 -51 -20 -56 -14 -4
-20 -15 -20 -35 0 -23 -5 -31 -25 -36 -29 -7 -34 -34 -6 -34 33 0 51 11 51 33
0 11 3 18 6 14 9 -9 34 19 34 37 0 8 12 22 28 30 19 11 22 15 10 16 -12 0 -18
8 -18 24 0 13 -6 27 -12 29 -8 3 -5 6 5 6 10 1 15 6 12 11 -3 6 1 13 9 16 24
9 19 23 -11 31 l-28 7 30 7 c54 12 63 9 104 -30 40 -39 51 -61 30 -61 -5 0 -7
-5 -4 -11 4 -6 14 -8 22 -5 19 8 43 -17 43 -42 0 -11 6 -23 13 -25 9 -4 9 -8
-2 -16 -13 -8 -11 -13 9 -29 21 -17 22 -22 11 -36 -7 -9 -9 -16 -3 -16 5 0 12
-14 14 -31 4 -25 0 -33 -19 -42 -12 -5 -23 -17 -23 -24 0 -23 -27 -44 -46 -36
-12 4 -15 3 -10 -5 4 -7 3 -12 -2 -12 -8 0 -23 -11 -69 -50 -21 -17 -62 -30
-78 -24 -10 4 -15 0 -15 -10 0 -11 -9 -16 -32 -16 -24 0 -29 -3 -19 -9 12 -8
8 -11 -15 -16 -16 -4 -40 -11 -54 -17 -14 -7 -28 -11 -33 -10 -4 1 -24 -5 -43
-13 -53 -22 -101 -19 -129 7 -13 13 -37 34 -54 48 -17 14 -31 33 -31 43 0 9
-8 17 -17 18 -14 0 -15 2 -3 6 21 9 40 30 40 45 0 8 9 20 20 28 11 8 20 22 20
32 0 10 5 18 10 18 6 0 10 9 10 19 0 11 5 21 12 23 7 3 11 24 11 53 -1 35 4
53 16 62 28 22 -13 16 -52 -7 -19 -11 -51 -21 -73 -23 -31 -2 -39 2 -42 18 -2
11 -10 35 -19 54 -15 33 -15 35 8 54 13 11 17 18 9 15 -16 -5 -40 14 -40 32 0
28 -79 80 -121 80 -36 0 -49 24 -49 93 0 48 -4 66 -15 71 -8 3 -15 12 -15 21
0 8 -3 15 -8 15 -10 0 -35 60 -28 68 4 3 28 6 54 6 25 -1 52 5 59 11 7 7 32
16 58 19 25 4 45 11 45 16 0 4 12 13 28 19 l27 11 -30 -6 c-16 -3 -32 -9 -35
-13 -3 -5 -12 -8 -20 -9 -8 0 -40 -8 -70 -16 -30 -9 -76 -16 -103 -16 l-48 0
1 63 c0 34 0 77 1 96 0 19 2 38 5 43 3 5 8 30 10 56 3 26 9 56 13 67 5 11 15
41 21 66 9 33 19 50 37 58 14 7 21 16 17 23 -4 7 -3 8 4 4 7 -4 17 -4 23 0 8
4 7 9 -2 15 -10 6 -7 9 11 9 18 0 21 3 11 9 -8 6 6 11 43 15 31 4 56 12 56 17
0 6 8 8 18 6 9 -3 35 -8 57 -12z m-660 -560 c81 -25 153 -66 182 -104 26 -33
27 -42 30 -156 2 -66 7 -129 12 -140 16 -37 51 -142 51 -156 0 -11 -3 -10 -15
1 -21 22 -111 209 -120 250 -4 19 -11 41 -15 50 -5 8 -19 44 -32 79 -23 64
-85 137 -129 153 -10 4 -19 14 -19 23 0 8 1 15 3 15 1 0 25 -7 52 -15z m-308
-372 c6 -52 16 -100 21 -106 6 -7 15 -30 21 -53 6 -23 33 -71 60 -107 45 -60
48 -68 35 -82 -23 -22 -14 -50 16 -50 14 0 26 6 26 13 1 6 2 14 3 17 0 3 12
-2 26 -11 17 -11 25 -25 25 -45 0 -15 5 -31 10 -34 6 -3 10 -13 10 -22 0 -17
28 -42 48 -43 14 0 16 46 2 55 -5 3 -10 22 -10 41 0 34 1 35 34 33 19 -2 38 0
41 3 4 4 13 4 21 1 8 -3 14 0 14 6 0 19 26 12 50 -14 24 -25 80 -35 80 -14 0
12 -26 40 -31 35 -2 -2 -9 2 -16 9 -10 11 -5 16 25 30 58 25 65 30 86 59 30
40 27 117 -7 181 -34 65 -46 135 -23 135 9 0 16 4 16 8 0 5 16 16 35 25 41 20
160 23 198 6 26 -12 61 -62 50 -73 -3 -3 1 -6 10 -6 9 0 17 -7 17 -15 0 -8 5
-15 10 -15 6 0 10 -20 10 -45 0 -25 5 -45 10 -45 6 0 10 -32 10 -75 0 -43 -4
-75 -10 -75 -5 0 -10 -11 -10 -24 0 -17 -7 -27 -22 -32 -28 -9 -48 -28 -48
-48 0 -8 -15 -20 -34 -26 -19 -6 -36 -15 -38 -19 -5 -11 -110 -61 -129 -61
-10 0 -25 -7 -34 -16 -37 -37 -405 -105 -405 -75 0 7 -6 11 -12 9 -37 -7 -158
94 -158 132 0 11 -4 20 -10 20 -5 0 -10 7 -10 15 0 8 -4 15 -10 15 -6 0 -10
40 -10 100 0 60 -4 100 -10 100 -6 0 -10 56 -10 147 0 80 3 143 7 139 5 -4 13
-50 20 -103z"/>
<path d="M928 2123 c17 -2 47 -2 65 0 17 2 3 4 -33 4 -36 0 -50 -2 -32 -4z"/>
<path d="M1062 2113 c9 -2 19 -11 22 -19 5 -14 -7 -87 -22 -124 -3 -8 -6 -17
-7 -20 -1 -3 -4 -12 -8 -20 -9 -22 -37 -198 -37 -234 -1 -53 -19 -66 -92 -66
-35 0 -68 -4 -73 -9 -6 -5 -19 -11 -30 -13 -11 -2 24 -3 78 -2 84 1 100 4 111
20 7 11 19 66 26 124 7 58 16 112 21 120 10 20 60 232 56 236 -2 2 -17 5 -33
8 -16 2 -22 1 -12 -1z"/>
<path d="M768 1593 c7 -3 16 -2 19 1 4 3 -2 6 -13 5 -11 0 -14 -3 -6 -6z"/>
<path d="M1530 1970 c0 -6 12 -10 27 -10 29 0 24 12 -7 17 -11 2 -20 -2 -20
-7z"/>
<path d="M1593 1945 c3 -11 9 -33 13 -50 8 -33 8 -34 17 -55 3 -8 13 -57 22
-108 10 -51 21 -95 26 -98 16 -9 10 -54 -6 -54 -9 0 -18 -6 -21 -14 -3 -8 -17
-17 -31 -21 -14 -3 -23 -8 -20 -11 6 -6 65 18 90 38 17 13 17 17 -6 98 -13 47
-30 117 -37 155 -7 39 -17 75 -22 82 -5 7 -7 16 -4 21 3 6 -2 16 -11 23 -14
12 -15 11 -10 -6z"/>
<path d="M1740 1081 c0 -6 4 -13 10 -16 6 -3 7 1 4 9 -7 18 -14 21 -14 7z"/>
<path d="M1760 989 c0 -5 5 -7 10 -4 6 3 10 8 10 11 0 2 -4 4 -10 4 -5 0 -10
-5 -10 -11z"/>
</g>
</svg>
